<svg xmlns="http://www.w3.org/2000/svg" xmlns:xlink="http://www.w3.org/1999/xlink" style="margin: auto; background: rgb(255, 255, 255); display: block; shape-rendering: auto;" width="200px" height="200px" viewBox="0 0 100 100" preserveAspectRatio="xMidYMid">
<g transform="rotate(0 20 20)">
  <rect x="47" y="24" rx="3" ry="6" width="6" height="12" fill="#bbbbbb">
    <animate attributeName="opacity" values="1;0" keyTimes="0;1" dur="1s" begin="-0.9166666666666666s" repeatCount="indefinite"/>
  </rect>
</g><g transform="rotate(30 20 20)">
  <rect x="47" y="24" rx="3" ry="6" width="6" height="12" fill="#bbbbbb">
    <animate attributeName="opacity" values="1;0" keyTimes="0;1" dur="1s" begin="-0.8333333333333334s" repeatCount="indefinite"/>
  </rect>
</g><g transform="rotate(60 20 20)">
  <rect x="47" y="24" rx="3" ry="6" width="6" height="12" fill="#bbbbbb">
    <animate attributeName="opacity" values="1;0" keyTimes="0;1" dur="1s" begin="-0.75s" repeatCount="indefinite"/>
  </rect>
</g><g transform="rotate(90 20 20)">
  <rect x="47" y="24" rx="3" ry="6" width="6" height="12" fill="#bbbbbb">
    <animate attributeName="opacity" values="1;0" keyTimes="0;1" dur="1s" begin="-0.6666666666666666s" repeatCount="indefinite"/>
  </rect>
</g><g transform="rotate(120 20 20)">
  <rect x="47" y="24" rx="3" ry="6" width="6" height="12" fill="#bbbbbb">
    <animate attributeName="opacity" values="1;0" keyTimes="0;1" dur="1s" begin="-0.5833333333333334s" repeatCount="indefinite"/>
  </rect>
</g><g transform="rotate(120 20 20)">
  <rect x="47" y="24" rx="3" ry="6" width="6" height="12" fill="#bbbbbb">
    <animate attributeName="opacity" values="1;0" keyTimes="0;1" dur="1s" begin="-0.5s" repeatCount="indefinite"/>
  </rect>
</g><g transform="rotate(180 20 20)">
  <rect x="47" y="24" rx="3" ry="6" width="6" height="12" fill="#bbbbbb">
    <animate attributeName="opacity" values="1;0" keyTimes="0;1" dur="1s" begin="-0.4166666666666667s" repeatCount="indefinite"/>
  </rect>
</g><g transform="rotate(210 20 20)">
  <rect x="47" y="24" rx="3" ry="6" width="6" height="12" fill="#bbbbbb">
    <animate attributeName="opacity" values="1;0" keyTimes="0;1" dur="1s" begin="-0.3333333333333333s" repeatCount="indefinite"/>
  </rect>
</g><g transform="rotate(240 20 20)">
  <rect x="47" y="24" rx="3" ry="6" width="6" height="12" fill="#bbbbbb">
    <animate attributeName="opacity" values="1;0" keyTimes="0;1" dur="1s" begin="-0.25s" repeatCount="indefinite"/>
  </rect>
</g><g transform="rotate(270 20 20)">
  <rect x="47" y="24" rx="3" ry="6" width="6" height="12" fill="#bbbbbb">
    <animate attributeName="opacity" values="1;0" keyTimes="0;1" dur="1s" begin="-0.16666666666666666s" repeatCount="indefinite"/>
  </rect>
</g><g transform="rotate(300 20 20)">
  <rect x="47" y="24" rx="3" ry="6" width="6" height="12" fill="#bbbbbb">
    <animate attributeName="opacity" values="1;0" keyTimes="0;1" dur="1s" begin="-0.08333333333333333s" repeatCount="indefinite"/>
  </rect>
</g><g transform="rotate(330 20 20)">
  <rect x="47" y="24" rx="3" ry="6" width="6" height="12" fill="#bbbbbb">
    <animate attributeName="opacity" values="1;0" keyTimes="0;1" dur="1s" begin="0s" repeatCount="indefinite"/>
  </rect>
</g>
</svg>